# xmcd
# 
# Track frame offsets:
#     150
#     19587
#     41719
#     60799
#     86940
#     120927
#     135529
#     149904
#     174046
#     192895
#     219031
#     241385
# 
# Disc length: 3676
# 
# Revision: 1
# Processed by: cddbd v1.5.2PL0 Copyright (c) Steve Scherf et al.
# Submitted via: fre:ac v1.0.31
# 
DISCID=9a0e5a0c
DTITLE=The Blue Note Jazz Orchestra Feat.Ursula Szabo - I Got News
DYEAR=1997
DGENRE=Jazz
TTITLE0=I Got News
TTITLE1=Los Matadores
TTITLE2=Don't Get Around Much Anymore
TTITLE3=Mira, Mira
TTITLE4=Lazy Day
TTITLE5=Ain't Misbehavin'
TTITLE6=Seven StepsTo Heaven
TTITLE7=Moonlight In Vermont
TTITLE8=Open Wide
TTITLE9=Wave
TTITLE10=Up For Air
TTITLE11=As Time Goes By
EXTD=Fixed by Berfle
EXTT0=
EXTT1=
EXTT2=
EXTT3=
EXTT4=
EXTT5=
EXTT6=
EXTT7=
EXTT8=
EXTT9=
EXTT10=
EXTT11=
PLAYORDER=
